<?xml version="1.0" encoding="UTF-8"?>
<svg id="Layer_2" data-name="Layer 2" xmlns="http://www.w3.org/2000/svg" viewBox="0 0 620.72 201.01">
  <defs>
    <style>
      .cls-4 {
        stroke: #2b3087;
        stroke-miterlimit: 10;
      }

      .cls-4, .cls-2 {
        fill: #2b3087;
      }

      .cls-3 {
        fill: #c87c29;
      }
    </style>
  </defs>
  <g id="Layer_1-2" data-name="Layer 1">
    <g>
      <line class="cls-4" x1="399.11" y1="142.66" x2="364.79" y2="71.72"/>
      <circle class="cls-3" cx="399.29" cy="141.07" r="6.42"/>
      <polygon class="cls-2" points="132.01 95.7 132.01 109.55 188.28 109.66 188.4 95.6 132.01 95.7"/>
      <polygon class="cls-2" points="131.91 122.27 131.91 161.9 191.21 161.66 191.25 148.9 146.66 148.66 146.71 134.88 185.02 134.7 184.99 122.27 131.91 122.27"/>
      <polygon class="cls-2" points="208.44 95.7 208.44 161.63 222.09 161.63 222.19 116.98 260.99 161.63 273.82 161.63 273.82 95.7 259.64 95.7 259.56 140.47 221.88 95.65 208.44 95.7"/>
      <path class="cls-2" d="m291.8,95.56v12.85l26.58.1c-.08,0-.05,52.69.04,52.69h14s0-52.71-.04-52.71h26.92v-13.1l-67.5.17Z"/>
      <path class="cls-2" d="m519.44,95.85v12.89h37.88s9.23.23,9.23,8.47c0,0,1.75,9-8.62,10.65l-38.61.1v33.64h13.82l-.08-20.83,17.53.08,15.49,20.75,16.17.03-16.89-23.26s16.21-3.32,15.42-21.88c0,0-1.04-19.8-22.47-20.59l-38.87-.06Z"/>
      <polygon class="cls-2" points="363.01 161.63 392.33 95.65 407.32 95.65 436.28 161.29 420.62 161.17 400.42 112.63 378.3 161.63 363.01 161.63"/>
      <path class="cls-2" d="m112.21,95.88h-39.3c-40.77,3.94-40.77,61.04,0,66l39.3.1v-13.27l-38.98-.71c-20.04-2.8-21.46-35.54,0-38.44h38.98v-13.68Z"/>
      <path class="cls-2" d="m441.52,95.47v39.31c-.2,38.44,64.37,37.73,63.25,0l.03-39.31h-14.73l.16,38.95c0,21.51-33.26,20.9-33.99,0v-38.9s-14.72-.06-14.72-.06Z"/>
      <line class="cls-4" x1="365.6" y1="71.57" x2="429.32" y2="46.55"/>
      <line class="cls-4" x1="402.27" y1="105.49" x2="430.79" y2="47.7"/>
      <circle class="cls-2" cx="365.04" cy="72.13" r="5.72"/>
      <circle class="cls-2" cx="430.79" cy="47.7" r="5.72"/>
    </g>
  </g>
</svg>
